<?xml version="1.0" standalone="no"?>
<!DOCTYPE svg PUBLIC "-//W3C//DTD SVG 20010904//EN"
 "http://www.w3.org/TR/2001/REC-SVG-20010904/DTD/svg10.dtd">
<svg version="1.0" xmlns="http://www.w3.org/2000/svg"
 width="200.000000pt" height="200.000000pt" viewBox="0 0 200.000000 200.000000"
 preserveAspectRatio="xMidYMid meet">

<g transform="translate(0.000000,200.000000) scale(0.100000,-0.100000)"
fill="#000000" stroke="none">
<path d="M869 1566 c-142 -30 -265 -96 -369 -196 -110 -107 -185 -247 -211
-394 -17 -101 -7 -253 25 -351 26 -82 83 -189 100 -188 6 0 63 88 128 194 65
107 141 232 169 278 l51 83 55 -96 c31 -53 57 -95 59 -94 1 2 -4 32 -11 68
l-13 64 71 123 c39 68 74 123 77 123 3 0 55 -85 115 -190 60 -104 110 -188
112 -187 1 2 -3 31 -9 64 -9 48 -8 68 2 93 7 17 16 27 21 23 4 -4 76 -120 160
-258 84 -137 160 -263 170 -278 l17 -29 37 67 c21 37 49 101 63 143 23 68 26
94 26 222 1 138 -1 149 -30 233 -39 109 -82 181 -157 263 -90 98 -215 174
-346 209 -82 22 -233 27 -312 11z"/>
</g>
</svg>
