<svg xmlns="http://www.w3.org/2000/svg" width="134" height="32" fill="none"><g fill="#2C3038" clip-path="url(#clip0)"><path fill-rule="evenodd" d="M3.83 32.326A20.1 20.1 0 010 20.49C0 9.354 9.01.326 20.123.326c11.114 0 20.123 9.028 20.123 20.164a20.1 20.1 0 01-3.83 11.836l-9.665-15.727-.933 1.58.947 4.39-6.642-11.386-4.108 6.951.956 4.436-3.481-5.962-9.66 15.718z" clip-rule="evenodd"/><path d="M54.704 24.595V13.64l7.303 10.954h3.347V8.71h-3.246v10.367L55.211 8.71h-3.753v15.884h3.246zm18.24.243c3.265 0 5.923-2.434 5.923-5.7 0-3.226-2.617-5.62-5.883-5.62-3.287 0-5.944 2.455-5.944 5.68 0 3.266 2.617 5.64 5.903 5.64zm.02-2.901c-1.481 0-2.678-1.136-2.678-2.78 0-1.622 1.176-2.758 2.657-2.758s2.678 1.136 2.678 2.759c0 1.643-1.177 2.779-2.657 2.779zm10.368 2.657v-4.747c0-2.008 1.055-3.063 2.576-3.063.142 0 .588 0 1.014.081v-3.103a3.927 3.927 0 00-.852-.122c-1.115 0-2.21.466-2.799 1.704h-.04v-1.582h-3.003v10.832h3.104zm12.214-1.379h.04v1.38h3.064V8.08h-3.144V15h-.04c-1.117-1.319-2.618-1.44-3.247-1.44-3.104 0-5.193 2.86-5.193 5.599 0 2.92 2.008 5.64 5.153 5.64.73 0 2.353-.102 3.367-1.583zm-2.637-1.278c-1.48 0-2.678-1.136-2.678-2.78 0-1.622 1.197-2.738 2.678-2.738 1.48 0 2.678 1.116 2.678 2.739 0 1.643-1.197 2.779-2.678 2.779zm14.912 2.657l3.469-11.522h.041l3.449 11.523h3.55l4.706-15.885h-3.388l-3.124 11.36-3.428-11.36h-3.51l-3.428 11.28-3.023-11.28h-3.51l4.667 15.884h3.529zm26.598 0V21.47h-6.796V8.71h-3.266v15.884h10.062z"/></g><defs><clipPath id="clip0"><path fill="#fff" d="M0 0h134v32H0z"/></clipPath></defs></svg>